<?xml version="1.0" encoding="utf-8"?>
<!-- Svg Vector Icons : http://www.sfont.cn -->
<!DOCTYPE svg PUBLIC "-//W3C//DTD SVG 1.1//EN" "http://www.w3.org/Graphics/SVG/1.1/DTD/svg11.dtd">
<svg version="1.1" xmlns="http://www.w3.org/2000/svg" xmlns:xlink="http://www.w3.org/1999/xlink" x="0px" y="0px" viewBox="0 0 1000 1000" enable-background="new 0 0 1000 1000" xml:space="preserve">
<metadata> Svg Vector Icons : http://www.sfont.cn </metadata>
<g><path d="M878.9,677.9c-30.5-57.7-39.7-115.7-18.5-180.1c14.3-43.1-14.7-73.1-48.3-96.6c-32-22.1-61.9-17.4-91.9,5.1c-41.1,30.6-51.5,103.8-26.5,158.8c11.4,25.1,15.3,55.1,16.1,82.9c1,28.8-5.8,57.7-8.1,75.5c-2,69,18.6,96.9,70.1,106.7c88.8,16.9,132.5-26.5,117.1-116.5C887.1,701.5,884.6,688.8,878.9,677.9z M803.8,428.6c0,0,15.7,1.5,18.9,11.7c3.1,10.5,6.1,21.1-12.2,20.6C792.3,460.4,803.8,428.6,803.8,428.6z M766.8,422.2c9.1-1.1,18.1,2.1,22.5,10.4c4.4,8.3,4.1,21.5,4.1,21.5s0.7,22.5-18.3,20.7c-8.6-0.7-17.1-11.1-17.1-23C757.9,437.7,766.8,422.2,766.8,422.2z M737,440.3c24.5,22.2,0,49.5,0,49.5s-22.2-7.7-22.9-23.7C713.6,450,737,440.3,737,440.3z M729.7,789.2c-20.8-19.5,22.2-22.2,22.2-22.2C774.9,799.1,750.4,808.6,729.7,789.2z M727.2,758.9c-11.5,0.6-7.4-43.9-7.4-43.9s61.1-0.4,72.6,0c11.4,0.7,41.2,42,41.2,42S738.7,758.3,727.2,758.9z M795.8,799.2c-9.2,0-23.8-8.4-23.8-17.2c0-8.7,14.5-15.1,23.8-15.1c9.1,0,23.8,6.3,23.8,15.1C819.6,790.9,804.8,799.2,795.8,799.2z M847.9,791.4c-8,0-23.1-4.6-23.1-11.8s15.2-14.8,23.1-14.8c8.1,0,21.1,5.3,21.1,12.6C868.9,784.7,855.9,791.4,847.9,791.4z"/><path d="M387.5,910.9c-6.8-2.9-14.5-5.8-22.5-10c-8.2-3.6-16.7-8.3-25.6-13.5c-8.9-5.1-18-10.9-27.2-17.4c-9-6.4-18.5-13.2-27.2-20.9c-9.1-7.4-18.1-15.4-26.6-23.7c-8.6-8.2-16.5-16.9-24.7-25.5c-7.9-8.7-15.4-17.6-22.4-26.2c-7.4-8.7-13.8-17.5-20.1-25.5c-6.2-8.4-11.9-16.3-17.1-23.8c-20.8-29.5-33.3-50.4-33.3-50.4s7.1,23.5,24.7,55.9c4.4,8,9.6,16.5,15.2,25.6c5.7,8.9,12.1,18,19,27.3c6.8,9.3,14.5,18.3,22.3,27.5c8.2,9,16.9,17.8,25.7,26.2c9,8.4,18.1,16.7,27.9,23.8c9.6,7.6,19.5,14.4,29.3,20.6c19.5,12.1,39.3,21.5,56.5,27.4c8.6,3.5,17.1,5.4,24,7.5c7.5,1.7,13.8,3,19,4.1c10.5,1.5,16.6,2.3,16.6,2.3s-5.9-1.8-15.8-5.1C400.4,915.6,394.3,913.3,387.5,910.9z"/><path d="M963.5,764.2c-5.3-71.9-8.8-143.9-16.4-215.5c-7-64.9-20.2-128.4-58.3-184.5c-23.1-34-48.9-68.4-60.7-106.8c-26.3-85.9-73.1-126.3-163-122.7c-102.3,4.2-204.3,11.9-306.5,16.5c-11.3,0.5-22.7-9.3-34-14.2c86.9-23.9,115.7-47.5,114.1-99c-0.1,0-0.3,0-0.5,0c-26.7,37.7-57.1,67.4-110.9,50c0.2-36.7,19.8-52.8,54.2-53c18.9-0.1,37.7,1.8,56.7,3c0.2-0.3,0.4-0.5,0.5-0.6c0,0.1,0,0.4,0,0.6c0.4,0.1,0.6,0.1,1,0.1C384.1-4,378.3-2.7,300.9,69c-16.1-9.1-32.2-20.3-49.8-27.4c-31-12.4-84.7,8.6-83.5,38.3c1,19.8,31.8,40.7,52.8,56.3c8.9,6.6,27.4-0.7,40.5,2c14,3,27.3,10.4,40.8,15.8c-9.3,9.6-17.1,23-28.5,28.7C95.7,269.1,10.3,461.2,42.9,659.6c29,178,239.9,321.9,402,329.5c169.5,7.8,320.6-35.7,463-121.9C947.5,843.2,966.9,810.5,963.5,764.2z M713.8,164.9c-0.1,0.7-0.1,1.1-0.2,1.7c-23.4,9.7-39.9,32.8-39.9,59.8c0,35.9,29.2,64.8,65,64.8c22.6,0,42.5-11.5,54.1-28.8c4.2,24.7,0.4,47.7-30.1,46.9c-54.7-1.1-101,12.7-146.4,64.8c-17.7-63.3-81.8-100.2-43.3-167.7C595.2,166.8,647.4,151.2,713.8,164.9z M400.6,461.6c17.5-12.5,28.9-32.8,28.9-55.9c0-38-30.9-68.8-68.8-68.8c-29.9,0-55.4,19.1-64.8,45.9c-25.3-89,48-161.5,139.5-143c61.3,12.3,104.4,49.5,132.1,104.2c16.8,33-0.4,80-38.3,103.4c-39.1,24.2-81.4,32.1-130.1,19.5C399.6,465.1,399.9,463.3,400.6,461.6z M190.4,81.3c28.3-24.3,60.1-19.7,111.2,17.3C261.8,126.3,218.9,118.7,190.4,81.3z M901.4,829.5c-42.2,43-91.9,78.8-159.3,54.2c-13.1-4.7-26.2-9.2-39.1-14c-79-29.2-99-61.9-79.2-143.2c14.2-57.9,14.4-110.1-18-163.8c-14.1-23.7-9.3-58.6-13.1-87.7c-25.4,17.9-32.1,72.1-9.1,112.5c23.9,41.6,25.8,84.3,12.4,128.4c-28.1,94.3,11.9,164.3,108,187.5c12.8,2.9,25.8,6.2,43,10.4c-239.2,96.9-421.5,64-586.6-99.3c-69.8-69.1-84-164.2-83-259.5c1.6-115.5,40.3-215.7,134.6-287.3c27.1-20.7,61.3-32.3,93.3-46.2c73.3-32.1,145-69.4,229.4-58.5c7.8,1.1,15.6,2.4,30.4,4.5c-16.9,28.9-29.8,51.5-43.9,76c-12.2-4.7-22.9-11-34.6-13.3c-33.7-6.7-68.1-18.4-101.3-16c-56.3,3.7-102,33.6-121.6,87.6c-19.9,54.3,3.7,100.6,44,138.3c61.4,57.4,135.9,67,209.2,37.8c35.1-13.9,59.1-55.2,88.7-84.9c0.2,0.5,4,7.8,14,26.1c6.2-12.1,8.7-21.1,14.3-26.9c51.4-54.6,150.8-66,211.3-22c13.1,9.6,24.1,28.2,27.4,44.3c6,31.1,8.3,63.2,8.2,95c-0.2,62.6,0.2,123.4,29.8,182.5C932.4,736.1,940.2,789.7,901.4,829.5z"/><path d="M558.6,132.7c2.1,0,4.8-0.7,6.9-2.1c0.5-0.3,60.8-39.7,102.3-16.1c5.9,3.3,13.6,1.4,17-4.7c3.3-6,1.4-13.7-4.7-17c-54.8-31.4-125.6,15.1-128.5,17.2c-5.7,3.8-7.3,11.6-3.3,17.3C550.4,130.8,554.4,132.7,558.6,132.7z"/></g>
</svg>